<?xml version="1.0" encoding="UTF-8"?>
<!DOCTYPE svg PUBLIC "-//W3C//DTD SVG 1.1//EN" "http://www.w3.org/Graphics/SVG/1.1/DTD/svg11.dtd">
<svg xmlns="http://www.w3.org/2000/svg" version="1.1" width="1388px" height="1149px" style="shape-rendering:geometricPrecision; text-rendering:geometricPrecision; image-rendering:optimizeQuality; fill-rule:evenodd; clip-rule:evenodd" xmlns:xlink="http://www.w3.org/1999/xlink">
<g><path style="opacity:1" fill="#000000" d="M -0.5,-0.5 C 462.167,-0.5 924.833,-0.5 1387.5,-0.5C 1387.5,382.5 1387.5,765.5 1387.5,1148.5C 924.833,1148.5 462.167,1148.5 -0.5,1148.5C -0.5,765.5 -0.5,382.5 -0.5,-0.5 Z"/></g>
<g><path style="opacity:1" fill="#a6a6a6" d="M 581.5,114.5 C 577.102,114.294 572.768,114.627 568.5,115.5C 568.611,114.883 568.944,114.383 569.5,114C 573.689,113.188 577.689,113.355 581.5,114.5 Z"/></g>
<g><path style="opacity:1" fill="#a7a7a7" d="M 773.5,114.5 C 769.102,114.294 764.768,114.627 760.5,115.5C 760.611,114.883 760.944,114.383 761.5,114C 765.689,113.188 769.689,113.355 773.5,114.5 Z"/></g>
<g><path style="opacity:1" fill="#fcfcfc" d="M 581.5,114.5 C 588.264,116.092 593.098,120.092 596,126.5C 596.667,153.5 596.667,180.5 596,207.5C 591.719,219.885 583.219,224.885 570.5,222.5C 570.027,221.094 569.027,220.427 567.5,220.5C 562.713,217.519 559.546,213.186 558,207.5C 557.5,199.841 557.334,192.174 557.5,184.5C 534.339,183.502 511.006,183.169 487.5,183.5C 487.5,206.167 487.5,228.833 487.5,251.5C 610.999,252.5 734.666,252.833 858.5,252.5C 859.498,229.673 859.831,206.673 859.5,183.5C 846.833,183.5 834.167,183.5 821.5,183.5C 821.5,173.5 821.5,163.5 821.5,153.5C 836.837,153.333 852.17,153.5 867.5,154C 870.154,154.941 872.821,155.774 875.5,156.5C 879.833,158.833 883.167,162.167 885.5,166.5C 885.427,168.027 886.094,169.027 887.5,169.5C 887.372,171.655 887.872,173.655 889,175.5C 889.667,277.5 889.667,379.5 889,481.5C 885.707,479.792 882.207,478.792 878.5,478.5C 876.621,477.659 874.621,477.325 872.5,477.5C 868.366,476.515 864.032,476.182 859.5,476.5C 859.832,412.331 859.499,348.331 858.5,284.5C 735.167,284.5 611.833,284.5 488.5,284.5C 487.501,386.332 487.167,488.332 487.5,590.5C 525.998,591.333 564.665,591.833 603.5,592C 609.091,598.097 615.091,603.597 621.5,608.5C 625.167,611.5 628.5,614.833 631.5,618.5C 606.676,619.833 581.509,620.5 556,620.5C 530.833,620.333 505.667,620.167 480.5,620C 477.883,619.178 475.216,618.678 472.5,618.5C 466.881,615.881 462.548,611.881 459.5,606.5C 459.573,604.973 458.906,603.973 457.5,603.5C 457.634,601.708 457.301,600.042 456.5,598.5C 456.333,457.5 456.5,316.5 457,175.5C 458.128,173.655 458.628,171.655 458.5,169.5C 459.906,169.027 460.573,168.027 460.5,166.5C 463.619,160.716 468.285,156.716 474.5,154.5C 502.313,153.867 529.98,153.2 557.5,152.5C 558.276,143.318 558.942,133.985 559.5,124.5C 561.5,120.5 564.5,117.5 568.5,115.5C 572.768,114.627 577.102,114.294 581.5,114.5 Z"/></g>
<g><path style="opacity:1" fill="#fcfcfc" d="M 773.5,114.5 C 779.596,115.602 783.929,118.935 786.5,124.5C 787.825,153.507 787.825,182.507 786.5,211.5C 782.688,219.252 776.354,223.252 767.5,223.5C 761.209,222.521 756.209,219.521 752.5,214.5C 751.833,212.167 751.167,209.833 750.5,207.5C 750.5,199.5 750.5,191.5 750.5,183.5C 709.833,183.5 669.167,183.5 628.5,183.5C 628.5,173.167 628.5,162.833 628.5,152.5C 668.833,152.5 709.167,152.5 749.5,152.5C 749.5,144.833 749.5,137.167 749.5,129.5C 749.402,127.447 750.069,125.78 751.5,124.5C 752.906,124.027 753.573,123.027 753.5,121.5C 755.239,118.757 757.573,116.757 760.5,115.5C 764.768,114.627 769.102,114.294 773.5,114.5 Z"/></g>
<g><path style="opacity:1" fill="#898989" d="M 753.5,121.5 C 753.573,123.027 752.906,124.027 751.5,124.5C 751.427,122.973 752.094,121.973 753.5,121.5 Z"/></g>
<g><path style="opacity:1" fill="#a6a6a6" d="M 559.5,124.5 C 558.942,133.985 558.276,143.318 557.5,152.5C 557.5,144.167 557.5,135.833 557.5,127.5C 557.932,126.29 558.599,125.29 559.5,124.5 Z"/></g>
<g><path style="opacity:1" fill="#a2a2a2" d="M 786.5,124.5 C 787.222,124.918 787.722,125.584 788,126.5C 788.667,154.167 788.667,181.833 788,209.5C 787.722,210.416 787.222,211.082 786.5,211.5C 787.825,182.507 787.825,153.507 786.5,124.5 Z"/></g>
<g><path style="opacity:1" fill="#2d2d2d" d="M 557.5,127.5 C 557.5,135.833 557.5,144.167 557.5,152.5C 532.5,152.5 507.5,152.5 482.5,152.5C 506.994,151.502 531.661,151.169 556.5,151.5C 556.174,143.316 556.508,135.316 557.5,127.5 Z"/></g>
<g><path style="opacity:1" fill="#313131" d="M 749.5,129.5 C 749.5,137.167 749.5,144.833 749.5,152.5C 709.167,152.5 668.833,152.5 628.5,152.5C 668.33,151.501 708.33,151.168 748.5,151.5C 748.175,143.981 748.508,136.648 749.5,129.5 Z"/></g>
<g><path style="opacity:1" fill="#a7a7a7" d="M 482.5,152.5 C 507.5,152.5 532.5,152.5 557.5,152.5C 529.98,153.2 502.313,153.867 474.5,154.5C 476.78,152.777 479.447,152.111 482.5,152.5 Z"/></g>
<g><path style="opacity:1" fill="#a1a1a1" d="M 875.5,156.5 C 872.821,155.774 870.154,154.941 867.5,154C 852.17,153.5 836.837,153.333 821.5,153.5C 821.5,163.5 821.5,173.5 821.5,183.5C 834.167,183.5 846.833,183.5 859.5,183.5C 859.831,206.673 859.498,229.673 858.5,252.5C 858.831,229.661 858.497,206.994 857.5,184.5C 845.167,184.5 832.833,184.5 820.5,184.5C 820.5,173.833 820.5,163.167 820.5,152.5C 836.503,152.333 852.503,152.5 868.5,153C 871.281,153.522 873.615,154.689 875.5,156.5 Z"/></g>
<g><path style="opacity:1" fill="#858585" d="M 460.5,166.5 C 460.573,168.027 459.906,169.027 458.5,169.5C 458.427,167.973 459.094,166.973 460.5,166.5 Z"/></g>
<g><path style="opacity:1" fill="#8a8a8a" d="M 885.5,166.5 C 886.906,166.973 887.573,167.973 887.5,169.5C 886.094,169.027 885.427,168.027 885.5,166.5 Z"/></g>
<g><path style="opacity:1" fill="#737373" d="M 458.5,169.5 C 458.628,171.655 458.128,173.655 457,175.5C 456.5,316.5 456.333,457.5 456.5,598.5C 455.334,457.334 455.167,316.001 456,174.5C 456.374,172.509 457.207,170.842 458.5,169.5 Z"/></g>
<g><path style="opacity:1" fill="#747474" d="M 887.5,169.5 C 888.558,170.6 889.392,171.934 890,173.5C 890.5,276.499 890.667,379.499 890.5,482.5C 886.216,481.739 882.216,480.405 878.5,478.5C 882.207,478.792 885.707,479.792 889,481.5C 889.667,379.5 889.667,277.5 889,175.5C 887.872,173.655 887.372,171.655 887.5,169.5 Z"/></g>
<g><path style="opacity:1" fill="#787878" d="M 628.5,183.5 C 669.167,183.5 709.833,183.5 750.5,183.5C 750.5,191.5 750.5,199.5 750.5,207.5C 750.167,207.5 749.833,207.5 749.5,207.5C 749.5,199.833 749.5,192.167 749.5,184.5C 708.997,184.832 668.663,184.499 628.5,183.5 Z"/></g>
<g><path style="opacity:1" fill="#505050" d="M 557.5,184.5 C 534.5,184.5 511.5,184.5 488.5,184.5C 488.5,206.833 488.5,229.167 488.5,251.5C 488.167,251.5 487.833,251.5 487.5,251.5C 487.5,228.833 487.5,206.167 487.5,183.5C 511.006,183.169 534.339,183.502 557.5,184.5 Z"/></g>
<g><path style="opacity:1" fill="#414141" d="M 749.5,207.5 C 749.833,207.5 750.167,207.5 750.5,207.5C 751.167,209.833 751.833,212.167 752.5,214.5C 750.166,212.824 749.166,210.491 749.5,207.5 Z"/></g>
<g><path style="opacity:1" fill="#6f6f6f" d="M 567.5,220.5 C 569.027,220.427 570.027,221.094 570.5,222.5C 568.973,222.573 567.973,221.906 567.5,220.5 Z"/></g>
<g><path style="opacity:1" fill="#5e5e5e" d="M 857.5,184.5 C 858.497,206.994 858.831,229.661 858.5,252.5C 734.666,252.833 610.999,252.5 487.5,251.5C 487.833,251.5 488.167,251.5 488.5,251.5C 611.5,251.5 734.5,251.5 857.5,251.5C 857.5,229.167 857.5,206.833 857.5,184.5 Z"/></g>
<g><path style="opacity:1" fill="#414141" d="M 488.5,284.5 C 488.5,386.167 488.5,487.833 488.5,589.5C 527.004,589.168 565.337,589.501 603.5,590.5C 564.833,590.5 526.167,590.5 487.5,590.5C 487.167,488.332 487.501,386.332 488.5,284.5 Z"/></g>
<g><path style="opacity:1" fill="#aeaeae" d="M 858.5,284.5 C 859.499,348.331 859.832,412.331 859.5,476.5C 864.032,476.182 868.366,476.515 872.5,477.5C 867.833,477.5 863.167,477.5 858.5,477.5C 858.5,413.167 858.5,348.833 858.5,284.5 Z"/></g>
<g><path style="opacity:1" fill="#fefefe" d="M 744.5,316.5 C 744.5,332.167 744.5,347.833 744.5,363.5C 728.833,363.5 713.167,363.5 697.5,363.5C 697.5,347.833 697.5,332.167 697.5,316.5C 713.167,316.5 728.833,316.5 744.5,316.5 Z"/></g>
<g><path style="opacity:1" fill="#cecece" d="M 505.5,316.5 C 505.5,332.167 505.5,347.833 505.5,363.5C 520.833,363.5 536.167,363.5 551.5,363.5C 551.5,347.833 551.5,332.167 551.5,316.5C 552.496,332.325 552.83,348.325 552.5,364.5C 536.5,364.5 520.5,364.5 504.5,364.5C 504.17,348.325 504.504,332.325 505.5,316.5 Z"/></g>
<g><path style="opacity:1" fill="#fefefe" d="M 505.5,316.5 C 520.833,316.5 536.167,316.5 551.5,316.5C 551.5,332.167 551.5,347.833 551.5,363.5C 536.167,363.5 520.833,363.5 505.5,363.5C 505.5,347.833 505.5,332.167 505.5,316.5 Z"/></g>
<g><path style="opacity:1" fill="#b2b2b2" d="M 601.5,316.5 C 601.5,332.167 601.5,347.833 601.5,363.5C 617.167,363.5 632.833,363.5 648.5,363.5C 648.5,347.833 648.5,332.167 648.5,316.5C 649.496,332.325 649.83,348.325 649.5,364.5C 633.167,364.5 616.833,364.5 600.5,364.5C 600.17,348.325 600.504,332.325 601.5,316.5 Z"/></g>
<g><path style="opacity:1" fill="#fdfdfd" d="M 601.5,316.5 C 617.167,316.5 632.833,316.5 648.5,316.5C 648.5,332.167 648.5,347.833 648.5,363.5C 632.833,363.5 617.167,363.5 601.5,363.5C 601.5,347.833 601.5,332.167 601.5,316.5 Z"/></g>
<g><path style="opacity:1" fill="#c8c8c8" d="M 744.5,316.5 C 745.496,332.325 745.83,348.325 745.5,364.5C 729.325,364.83 713.325,364.496 697.5,363.5C 713.167,363.5 728.833,363.5 744.5,363.5C 744.5,347.833 744.5,332.167 744.5,316.5 Z"/></g>
<g><path style="opacity:1" fill="#cfcfcf" d="M 793.5,316.5 C 809.5,316.5 825.5,316.5 841.5,316.5C 841.5,332.5 841.5,348.5 841.5,364.5C 825.5,364.5 809.5,364.5 793.5,364.5C 793.5,348.5 793.5,332.5 793.5,316.5 Z"/></g>
<g><path style="opacity:1" fill="#fefefe" d="M 794.5,317.5 C 809.833,317.5 825.167,317.5 840.5,317.5C 840.5,332.833 840.5,348.167 840.5,363.5C 825.167,363.5 809.833,363.5 794.5,363.5C 794.5,348.167 794.5,332.833 794.5,317.5 Z"/></g>
<g><path style="opacity:1" fill="#949494" d="M 504.5,460.5 C 503.504,444.675 503.17,428.675 503.5,412.5C 519.833,412.5 536.167,412.5 552.5,412.5C 552.5,428.833 552.5,445.167 552.5,461.5C 536.325,461.83 520.325,461.496 504.5,460.5 Z"/></g>
<g><path style="opacity:1" fill="#fdfdfd" d="M 504.5,460.5 C 504.5,444.833 504.5,429.167 504.5,413.5C 520.167,413.5 535.833,413.5 551.5,413.5C 551.5,429.167 551.5,444.833 551.5,460.5C 535.833,460.5 520.167,460.5 504.5,460.5 Z"/></g>
<g><path style="opacity:1" fill="#939393" d="M 648.5,460.5 C 632.675,461.496 616.675,461.83 600.5,461.5C 600.5,445.167 600.5,428.833 600.5,412.5C 616.833,412.5 633.167,412.5 649.5,412.5C 649.83,428.675 649.496,444.675 648.5,460.5 Z"/></g>
<g><path style="opacity:1" fill="#fefefe" d="M 648.5,460.5 C 632.833,460.5 617.167,460.5 601.5,460.5C 601.5,444.833 601.5,429.167 601.5,413.5C 617.167,413.5 632.833,413.5 648.5,413.5C 648.5,429.167 648.5,444.833 648.5,460.5 Z"/></g>
<g><path style="opacity:1" fill="#7d7d7d" d="M 726.5,413.5 C 721.009,413.15 715.676,413.816 710.5,415.5C 711.347,414.034 712.68,413.2 714.5,413C 718.689,412.188 722.689,412.355 726.5,413.5 Z"/></g>
<g><path style="opacity:1" fill="#fdfdfd" d="M 726.5,413.5 C 734.622,415.297 740.289,419.964 743.5,427.5C 744.305,460.811 744.805,494.144 745,527.5C 745.333,527.833 745.667,528.167 746,528.5C 746.608,526.846 747.108,525.179 747.5,523.5C 747.5,523.167 747.5,522.833 747.5,522.5C 749.855,518.145 753.188,514.812 757.5,512.5C 764.722,510.33 772.055,509.997 779.5,511.5C 785.919,514.252 790.253,518.919 792.5,525.5C 792.238,526.978 792.571,528.311 793.5,529.5C 795.086,527.827 795.753,525.827 795.5,523.5C 796.906,523.027 797.573,522.027 797.5,520.5C 799.562,516.105 802.896,513.105 807.5,511.5C 814.167,510.167 820.833,510.167 827.5,511.5C 832.462,513.464 836.129,516.798 838.5,521.5C 838.427,523.027 839.094,524.027 840.5,524.5C 840.5,524.833 840.5,525.167 840.5,525.5C 840.461,526.756 840.961,527.756 842,528.5C 843.269,527.095 843.769,525.429 843.5,523.5C 844.906,523.027 845.573,522.027 845.5,520.5C 847.562,516.105 850.896,513.105 855.5,511.5C 861.13,510.708 866.797,510.375 872.5,510.5C 879.275,512.274 884.275,516.274 887.5,522.5C 887.372,524.655 887.872,526.655 889,528.5C 889.5,578.166 889.667,627.832 889.5,677.5C 887.16,684.831 882.494,690.164 875.5,693.5C 837.197,694.482 798.864,694.815 760.5,694.5C 758.565,693.85 756.565,693.517 754.5,693.5C 752.745,692.928 751.078,692.094 749.5,691C 704.639,646.472 660.139,601.639 616,556.5C 608.741,542.094 611.907,530.761 625.5,522.5C 630.678,520.915 636.012,520.248 641.5,520.5C 645.604,520.884 649.271,522.384 652.5,525C 667.035,539.368 681.369,553.868 695.5,568.5C 695.56,569.043 695.893,569.376 696.5,569.5C 697.5,523.171 697.833,476.838 697.5,430.5C 699.055,427.06 700.888,423.727 703,420.5C 704.857,417.8 707.357,416.134 710.5,415.5C 715.676,413.816 721.009,413.15 726.5,413.5 Z"/></g>
<g><path style="opacity:1" fill="#8e8e8e" d="M 841.5,460.5 C 825.675,461.496 809.675,461.83 793.5,461.5C 793.5,445.167 793.5,428.833 793.5,412.5C 809.833,412.5 826.167,412.5 842.5,412.5C 842.83,428.675 842.496,444.675 841.5,460.5 Z"/></g>
<g><path style="opacity:1" fill="#fdfdfd" d="M 841.5,460.5 C 825.833,460.5 810.167,460.5 794.5,460.5C 794.5,444.833 794.5,429.167 794.5,413.5C 810.167,413.5 825.833,413.5 841.5,413.5C 841.5,429.167 841.5,444.833 841.5,460.5 Z"/></g>
<g><path style="opacity:1" fill="#595959" d="M 697.5,430.5 C 697.833,476.838 697.5,523.171 696.5,569.5C 695.893,569.376 695.56,569.043 695.5,568.5C 696.167,522.5 696.833,476.5 697.5,430.5 Z"/></g>
<g><path style="opacity:1" fill="#aeaeae" d="M 743.5,427.5 C 744.738,429.214 745.405,431.214 745.5,433.5C 745.333,463.835 745.5,494.168 746,524.5C 746.383,523.944 746.883,523.611 747.5,523.5C 747.108,525.179 746.608,526.846 746,528.5C 745.667,528.167 745.333,527.833 745,527.5C 744.805,494.144 744.305,460.811 743.5,427.5 Z"/></g>
<g><path style="opacity:1" fill="#222222" d="M 745.5,433.5 C 746.167,463.167 746.833,492.833 747.5,522.5C 747.5,522.833 747.5,523.167 747.5,523.5C 746.883,523.611 746.383,523.944 746,524.5C 745.5,494.168 745.333,463.835 745.5,433.5 Z"/></g>
<g><path style="opacity:1" fill="#bdbdbd" d="M 779.5,511.5 C 772.055,509.997 764.722,510.33 757.5,512.5C 758.6,511.442 759.934,510.608 761.5,510C 766.833,509.333 772.167,509.333 777.5,510C 778.416,510.278 779.082,510.778 779.5,511.5 Z"/></g>
<g><path style="opacity:1" fill="#bebebe" d="M 827.5,511.5 C 820.833,510.167 814.167,510.167 807.5,511.5C 807.918,510.778 808.584,510.278 809.5,510C 814.833,509.333 820.167,509.333 825.5,510C 826.416,510.278 827.082,510.778 827.5,511.5 Z"/></g>
<g><path style="opacity:1" fill="#9f9f9f" d="M 872.5,510.5 C 866.797,510.375 861.13,510.708 855.5,511.5C 858.598,509.513 862.098,508.513 866,508.5C 868.544,508.336 870.71,509.003 872.5,510.5 Z"/></g>
<g><path style="opacity:1" fill="#b9b9b9" d="M 641.5,520.5 C 636.012,520.248 630.678,520.915 625.5,522.5C 626.842,521.207 628.509,520.374 630.5,520C 634.358,519.19 638.024,519.357 641.5,520.5 Z"/></g>
<g><path style="opacity:1" fill="#868686" d="M 797.5,520.5 C 797.573,522.027 796.906,523.027 795.5,523.5C 795.427,521.973 796.094,520.973 797.5,520.5 Z"/></g>
<g><path style="opacity:1" fill="#747474" d="M 845.5,520.5 C 845.573,522.027 844.906,523.027 843.5,523.5C 843.427,521.973 844.094,520.973 845.5,520.5 Z"/></g>
<g><path style="opacity:1" fill="#737373" d="M 838.5,521.5 C 839.906,521.973 840.573,522.973 840.5,524.5C 839.094,524.027 838.427,523.027 838.5,521.5 Z"/></g>
<g><path style="opacity:1" fill="#959595" d="M 795.5,523.5 C 795.753,525.827 795.086,527.827 793.5,529.5C 792.571,528.311 792.238,526.978 792.5,525.5C 793.778,525.218 794.778,524.551 795.5,523.5 Z"/></g>
<g><path style="opacity:1" fill="#838383" d="M 843.5,523.5 C 843.769,525.429 843.269,527.095 842,528.5C 840.961,527.756 840.461,526.756 840.5,525.5C 841.117,525.611 841.617,525.944 842,526.5C 842.232,525.263 842.732,524.263 843.5,523.5 Z"/></g>
<g><path style="opacity:1" fill="#737373" d="M 887.5,522.5 C 888.558,523.6 889.392,524.934 890,526.5C 890.832,577.002 890.665,627.335 889.5,677.5C 889.667,627.832 889.5,578.166 889,528.5C 887.872,526.655 887.372,524.655 887.5,522.5 Z"/></g>
<g><path style="opacity:1" fill="#989898" d="M 504.5,509.5 C 520.325,508.504 536.325,508.17 552.5,508.5C 552.5,524.833 552.5,541.167 552.5,557.5C 536.167,557.5 519.833,557.5 503.5,557.5C 503.17,541.325 503.504,525.325 504.5,509.5 Z"/></g>
<g><path style="opacity:1" fill="#d5d5d5" d="M 504.5,509.5 C 520.342,509.17 536.009,509.504 551.5,510.5C 536.167,510.5 520.833,510.5 505.5,510.5C 505.5,525.833 505.5,541.167 505.5,556.5C 504.504,541.009 504.17,525.342 504.5,509.5 Z"/></g>
<g><path style="opacity:1" fill="#fefefe" d="M 551.5,510.5 C 551.5,525.833 551.5,541.167 551.5,556.5C 536.167,556.5 520.833,556.5 505.5,556.5C 505.5,541.167 505.5,525.833 505.5,510.5C 520.833,510.5 536.167,510.5 551.5,510.5 Z"/></g>
<g><path style="opacity:1" fill="#e5e5e5" d="M 487.5,590.5 C 526.167,590.5 564.833,590.5 603.5,590.5C 609.833,596.167 615.833,602.167 621.5,608.5C 615.091,603.597 609.091,598.097 603.5,592C 564.665,591.833 525.998,591.333 487.5,590.5 Z"/></g>
<g><path style="opacity:1" fill="#5f5f5f" d="M 457.5,603.5 C 458.906,603.973 459.573,604.973 459.5,606.5C 458.094,606.027 457.427,605.027 457.5,603.5 Z"/></g>
<g><path style="opacity:1" fill="#e2e2e2" d="M 472.5,618.5 C 475.216,618.678 477.883,619.178 480.5,620C 505.667,620.167 530.833,620.333 556,620.5C 581.509,620.5 606.676,619.833 631.5,618.5C 632.627,619.122 633.627,619.955 634.5,621C 582.5,621.667 530.5,621.667 478.5,621C 476.148,620.76 474.148,619.927 472.5,618.5 Z"/></g>
<g><path style="opacity:1" fill="#dcdcdc" d="M 875.5,693.5 C 873.562,695.163 871.228,695.829 868.5,695.5C 832.329,695.832 796.329,695.498 760.5,694.5C 798.864,694.815 837.197,694.482 875.5,693.5 Z"/></g>
<g><path style="opacity:1" fill="#747474" d="M 754.5,693.5 C 756.565,693.517 758.565,693.85 760.5,694.5C 796.329,695.498 832.329,695.832 868.5,695.5C 832.336,696.664 796.002,696.831 759.5,696C 757.509,695.626 755.842,694.793 754.5,693.5 Z"/></g>
<g><path style="opacity:1" fill="#4f4f4f" d="M 417.5,752.5 C 410.132,752.317 402.799,752.65 395.5,753.5C 396.263,752.732 397.263,752.232 398.5,752C 405.014,751.18 411.347,751.347 417.5,752.5 Z"/></g>
<g><path style="opacity:1" fill="#f9f9f9" d="M 417.5,752.5 C 425.102,753.029 431.768,755.696 437.5,760.5C 438.08,762.749 439.413,764.415 441.5,765.5C 441.427,767.027 442.094,768.027 443.5,768.5C 443.259,770.898 443.926,772.898 445.5,774.5C 447.773,788.839 441.773,795.339 427.5,794C 426.944,793.617 426.611,793.117 426.5,792.5C 426.027,791.094 425.027,790.427 423.5,790.5C 421.053,786.232 419.553,781.566 419,776.5C 416.464,773.234 413.131,771.9 409,772.5C 407.167,772.667 405.333,772.833 403.5,773C 402.944,773.383 402.611,773.883 402.5,774.5C 401.542,774.953 400.708,775.619 400,776.5C 399.501,780.152 399.335,783.818 399.5,787.5C 399.588,791.589 401.588,794.256 405.5,795.5C 417.672,802.5 429.172,810.5 440,819.5C 441.421,821.405 442.588,823.405 443.5,825.5C 443.737,828.647 444.57,831.647 446,834.5C 446.499,839.489 446.666,844.489 446.5,849.5C 444.119,862.213 436.786,870.546 424.5,874.5C 415.186,875.484 405.852,875.651 396.5,875C 393.647,873.57 390.647,872.737 387.5,872.5C 382.243,870.245 378.243,866.578 375.5,861.5C 375.573,859.973 374.906,858.973 373.5,858.5C 371.651,852.295 371.151,845.962 372,839.5C 373.48,836.337 375.98,834.504 379.5,834C 387.444,832.164 393.444,834.664 397.5,841.5C 397.068,844.877 397.735,847.877 399.5,850.5C 399.859,852.371 400.859,853.871 402.5,855C 415.914,858.249 421.747,853.082 420,839.5C 417.985,834.481 414.818,830.315 410.5,827C 399.018,820.506 388.518,812.673 379,803.5C 376.005,800.013 374.172,796.013 373.5,791.5C 372.957,782.949 373.957,774.616 376.5,766.5C 376.328,765.508 376.662,764.842 377.5,764.5C 380.167,762.5 382.5,760.167 384.5,757.5C 384.842,756.662 385.508,756.328 386.5,756.5C 389.855,756.31 392.855,755.31 395.5,753.5C 402.799,752.65 410.132,752.317 417.5,752.5 Z"/></g>
<g><path style="opacity:1" fill="#aeaeae" d="M 395.5,753.5 C 392.855,755.31 389.855,756.31 386.5,756.5C 389.084,754.528 392.084,753.528 395.5,753.5 Z"/></g>
<g><path style="opacity:1" fill="#fafafa" d="M 558.5,753.5 C 562.514,753.334 566.514,753.501 570.5,754C 573.409,755.406 575.409,757.572 576.5,760.5C 577.093,773.822 577.759,787.155 578.5,800.5C 579.425,799.643 580.092,798.643 580.5,797.5C 581.833,794.167 584.167,791.833 587.5,790.5C 592.772,789.6 598.105,789.267 603.5,789.5C 609.907,790.202 614.907,793.202 618.5,798.5C 618.427,800.027 619.094,801.027 620.5,801.5C 620.259,803.898 620.926,805.898 622.5,807.5C 623.222,807.918 623.722,808.584 624,809.5C 624.667,828.5 624.667,847.5 624,866.5C 620.631,875.101 614.465,878.268 605.5,876C 600.744,873.578 597.91,869.745 597,864.5C 596.667,847.5 596.333,830.5 596,813.5C 594.961,812.29 593.794,811.29 592.5,810.5C 591.551,809.848 590.385,809.514 589,809.5C 586.992,809.307 585.492,809.974 584.5,811.5C 582.738,812.262 581.738,813.596 581.5,815.5C 579.469,818.422 578.302,821.755 578,825.5C 577.5,838.496 577.333,851.496 577.5,864.5C 575.355,874.085 569.355,877.918 559.5,876C 556.394,874.575 554.06,872.408 552.5,869.5C 551.167,832.833 551.167,796.167 552.5,759.5C 554.833,757.833 556.833,755.833 558.5,753.5 Z"/></g>
<g><path style="opacity:1" fill="#fcfcfc" d="M 781.5,753.5 C 786.4,753.033 791.067,753.699 795.5,755.5C 796.845,757.697 798.011,760.03 799,762.5C 799.8,798.185 799.634,833.852 798.5,869.5C 797.409,872.428 795.409,874.594 792.5,876C 784.216,878.57 778.216,876.07 774.5,868.5C 774.314,863.69 773.314,863.357 771.5,867.5C 769.451,870.55 766.784,872.883 763.5,874.5C 758.507,874.916 753.507,875.249 748.5,875.5C 746.898,873.926 744.898,873.259 742.5,873.5C 738.298,872.137 735.131,869.47 733,865.5C 730.662,861.822 729.162,857.822 728.5,853.5C 728.333,839.163 728.5,824.829 729,810.5C 730.43,807.647 731.263,804.647 731.5,801.5C 733.587,800.415 734.92,798.749 735.5,796.5C 736.865,794.14 738.865,792.473 741.5,791.5C 747.68,789.818 754.013,789.152 760.5,789.5C 764.897,790.198 768.564,792.198 771.5,795.5C 771.5,796.167 771.5,796.833 771.5,797.5C 771.541,799.745 772.375,800.412 774,799.5C 774.241,786.142 774.741,772.808 775.5,759.5C 777.833,757.833 779.833,755.833 781.5,753.5 Z"/></g>
<g><path style="opacity:1" fill="#8a8a8a" d="M 558.5,753.5 C 556.833,755.833 554.833,757.833 552.5,759.5C 553.5,756.5 555.5,754.5 558.5,753.5 Z"/></g>
<g><path style="opacity:1" fill="#8d8d8d" d="M 781.5,753.5 C 779.833,755.833 777.833,757.833 775.5,759.5C 776.5,756.5 778.5,754.5 781.5,753.5 Z"/></g>
<g><path style="opacity:1" fill="#999999" d="M 384.5,757.5 C 382.5,760.167 380.167,762.5 377.5,764.5C 378.833,761.167 381.167,758.833 384.5,757.5 Z"/></g>
<g><path style="opacity:1" fill="#a9a9a9" d="M 437.5,760.5 C 439.587,761.585 440.92,763.251 441.5,765.5C 439.413,764.415 438.08,762.749 437.5,760.5 Z"/></g>
<g><path style="opacity:1" fill="#7c7c7c" d="M 441.5,765.5 C 442.906,765.973 443.573,766.973 443.5,768.5C 442.094,768.027 441.427,767.027 441.5,765.5 Z"/></g>
<g><path style="opacity:1" fill="#aeaeae" d="M 795.5,755.5 C 798.231,757.071 800.065,759.405 801,762.5C 801.833,797.505 801.667,832.505 800.5,867.5C 799.818,868.243 799.151,868.909 798.5,869.5C 799.634,833.852 799.8,798.185 799,762.5C 798.011,760.03 796.845,757.697 795.5,755.5 Z"/></g>
<g><path style="opacity:1" fill="#949494" d="M 576.5,760.5 C 577.268,761.263 577.768,762.263 578,763.5C 577.851,775.211 578.684,786.544 580.5,797.5C 580.092,798.643 579.425,799.643 578.5,800.5C 577.759,787.155 577.093,773.822 576.5,760.5 Z"/></g>
<g><path style="opacity:1" fill="#6c6c6c" d="M 443.5,768.5 C 445.074,770.102 445.741,772.102 445.5,774.5C 443.926,772.898 443.259,770.898 443.5,768.5 Z"/></g>
<g><path style="opacity:1" fill="#a0a0a0" d="M 552.5,759.5 C 551.167,796.167 551.167,832.833 552.5,869.5C 551.778,869.082 551.278,868.416 551,867.5C 550.333,832.167 550.333,796.833 551,761.5C 551.278,760.584 551.778,759.918 552.5,759.5 Z"/></g>
<g><path style="opacity:1" fill="#2b2b2b" d="M 773.5,763.5 C 773.667,775.171 773.5,786.838 773,798.5C 772.617,797.944 772.117,797.611 771.5,797.5C 771.5,796.833 771.5,796.167 771.5,795.5C 772.167,784.833 772.833,774.167 773.5,763.5 Z"/></g>
<g><path style="opacity:1" fill="#aaaaaa" d="M 775.5,759.5 C 774.741,772.808 774.241,786.142 774,799.5C 772.375,800.412 771.541,799.745 771.5,797.5C 772.117,797.611 772.617,797.944 773,798.5C 773.5,786.838 773.667,775.171 773.5,763.5C 773.66,761.847 774.326,760.514 775.5,759.5 Z"/></g>
<g><path style="opacity:1" fill="#3d3d3d" d="M 402.5,774.5 C 400.722,778.565 400.055,782.899 400.5,787.5C 400.167,787.5 399.833,787.5 399.5,787.5C 399.335,783.818 399.501,780.152 400,776.5C 400.708,775.619 401.542,774.953 402.5,774.5 Z"/></g>
<g><path style="opacity:1" fill="#9c9b9b" d="M 376.5,766.5 C 373.957,774.616 372.957,782.949 373.5,791.5C 372.348,786.015 372.182,780.349 373,774.5C 373.738,771.499 374.904,768.832 376.5,766.5 Z"/></g>
<g><path style="opacity:1" fill="#3e3e3e" d="M 872.5,788.5 C 876.646,787.353 880.98,787.186 885.5,788C 886.756,788.417 887.423,789.25 887.5,790.5C 882.697,788.758 877.697,788.091 872.5,788.5 Z"/></g>
<g><path style="opacity:1" fill="#9b9b9b" d="M 970.5,788.5 C 967.43,788.368 964.43,788.701 961.5,789.5C 961.611,788.883 961.944,788.383 962.5,788C 965.367,787.199 968.034,787.366 970.5,788.5 Z"/></g>
<g><path style="opacity:1" fill="#979797" d="M 501.5,788.5 C 495.155,788.653 488.822,788.986 482.5,789.5C 486.239,788.078 490.239,787.411 494.5,787.5C 497.025,787.503 499.359,787.837 501.5,788.5 Z"/></g>
<g><path style="opacity:1" fill="#aaaaaa" d="M 603.5,789.5 C 598.105,789.267 592.772,789.6 587.5,790.5C 587.611,789.883 587.944,789.383 588.5,789C 591.269,788.137 594.102,787.637 597,787.5C 599.544,787.336 601.71,788.003 603.5,789.5 Z"/></g>
<g><path style="opacity:1" fill="#f8f8f8" d="M 501.5,788.5 C 509.385,788.687 516.718,790.687 523.5,794.5C 524.833,796.5 526.5,798.167 528.5,799.5C 528.427,801.027 529.094,802.027 530.5,802.5C 530.427,804.027 531.094,805.027 532.5,805.5C 534.408,810.317 534.908,815.317 534,820.5C 532.521,823.816 530.021,825.816 526.5,826.5C 520.797,826.625 515.13,826.292 509.5,825.5C 508.878,824.373 508.045,823.373 507,822.5C 507.505,811.678 502.338,807.178 491.5,809C 490.619,809.708 489.953,810.542 489.5,811.5C 488.25,811.577 487.417,812.244 487,813.5C 486.174,825.674 486.34,837.674 487.5,849.5C 489.161,857.151 493.828,859.651 501.5,857C 502.931,856.535 504.097,855.701 505,854.5C 505.942,850.532 506.775,846.532 507.5,842.5C 508.183,842.137 508.85,841.804 509.5,841.5C 515.775,840.582 522.108,840.249 528.5,840.5C 533.354,841.202 535.354,844.035 534.5,849C 533.733,853.243 532.733,857.41 531.5,861.5C 529.413,862.585 528.08,864.251 527.5,866.5C 515.177,875.329 501.511,878.329 486.5,875.5C 483.2,873.358 479.533,872.025 475.5,871.5C 472.112,870.381 469.279,868.381 467,865.5C 463.72,861.342 461.387,856.675 460,851.5C 459.203,838.122 459.37,824.788 460.5,811.5C 462.585,809.316 463.585,806.649 463.5,803.5C 463.738,801.596 464.738,800.262 466.5,799.5C 468.5,798.167 470.167,796.5 471.5,794.5C 474.497,791.504 478.164,789.837 482.5,789.5C 488.822,788.986 495.155,788.653 501.5,788.5 Z"/></g>
<g><path style="opacity:1" fill="#f9f9f9" d="M 709.5,802.5 C 709.427,804.027 710.094,805.027 711.5,805.5C 713.568,813.609 714.068,821.942 713,830.5C 711.488,833.857 708.988,835.857 705.5,836.5C 692.167,836.5 678.833,836.5 665.5,836.5C 665.182,841.032 665.515,845.366 666.5,849.5C 669.623,857.591 675.29,859.757 683.5,856C 685.5,852.667 688.167,850 691.5,848C 697.681,847.036 703.681,847.536 709.5,849.5C 711.252,853.227 711.919,857.227 711.5,861.5C 709.135,866.196 705.468,869.529 700.5,871.5C 698.62,871.229 697.287,871.896 696.5,873.5C 686.259,876.286 675.925,876.952 665.5,875.5C 662.2,873.358 658.533,872.025 654.5,871.5C 651.112,870.381 648.279,868.381 646,865.5C 642.889,861.613 640.556,857.28 639,852.5C 638.173,838.994 638.34,825.66 639.5,812.5C 641.074,810.898 641.741,808.898 641.5,806.5C 641.5,806.167 641.5,805.833 641.5,805.5C 642.906,805.027 643.573,804.027 643.5,802.5C 646.709,796.796 651.375,792.629 657.5,790C 673.534,785.408 688.867,787.075 703.5,795C 706.118,797.106 708.118,799.606 709.5,802.5 Z"/></g>
<g><path style="opacity:1" fill="#bdbdbd" d="M 760.5,789.5 C 754.013,789.152 747.68,789.818 741.5,791.5C 742.842,790.207 744.509,789.374 746.5,789C 751.352,788.185 756.019,788.352 760.5,789.5 Z"/></g>
<g><path style="opacity:1" fill="#999999" d="M 839.5,788.5 C 837.898,790.074 835.898,790.741 833.5,790.5C 835.102,788.926 837.102,788.259 839.5,788.5 Z"/></g>
<g><path style="opacity:1" fill="#fbfbfb" d="M 839.5,788.5 C 846.412,787.591 852.746,788.925 858.5,792.5C 859.08,794.749 860.413,796.415 862.5,797.5C 862.5,798.5 862.5,799.5 862.5,800.5C 863.5,800.5 864.5,800.5 865.5,800.5C 865.5,798.5 865.5,796.5 865.5,794.5C 867.239,791.757 869.573,789.757 872.5,788.5C 877.697,788.091 882.697,788.758 887.5,790.5C 887.5,790.833 887.5,791.167 887.5,791.5C 888.511,793.372 889.345,795.372 890,797.5C 890.5,827.165 890.667,856.831 890.5,886.5C 889.85,888.435 889.517,890.435 889.5,892.5C 888.559,894.05 887.893,895.716 887.5,897.5C 884.5,899.833 881.833,902.5 879.5,905.5C 866.444,911.609 852.777,913.109 838.5,910C 835.16,908.997 832.16,907.497 829.5,905.5C 827.452,902.785 825.118,900.452 822.5,898.5C 820.657,894.813 819.99,890.813 820.5,886.5C 821.262,884.738 822.596,883.738 824.5,883.5C 829.438,882.608 834.438,882.274 839.5,882.5C 840.671,883.345 842.005,884.011 843.5,884.5C 844.511,886.372 845.345,888.372 846,890.5C 846.816,891.823 847.983,892.489 849.5,892.5C 852.64,893.641 855.973,893.808 859.5,893C 860.056,892.617 860.389,892.117 860.5,891.5C 861.989,889.355 862.989,887.022 863.5,884.5C 864.654,878.013 864.821,871.346 864,864.5C 862.961,865.244 862.461,866.244 862.5,867.5C 853.8,877.291 843.466,879.124 831.5,873C 824.95,868.076 820.783,861.576 819,853.5C 818.184,838.426 818.351,823.426 819.5,808.5C 821.074,806.898 821.741,804.898 821.5,802.5C 822.906,802.027 823.573,801.027 823.5,799.5C 826.167,797.5 828.5,795.167 830.5,792.5C 830.973,791.094 831.973,790.427 833.5,790.5C 835.898,790.741 837.898,790.074 839.5,788.5 Z"/></g>
<g><path style="opacity:1" fill="#fbfbfb" d="M 927.5,794.5 C 927.427,796.027 928.094,797.027 929.5,797.5C 931.589,805.767 934.256,813.767 937.5,821.5C 938.103,826.475 939.603,831.141 942,835.5C 943.039,834.756 943.539,833.756 943.5,832.5C 945.61,828.498 946.943,824.165 947.5,819.5C 949.277,816.495 950.277,813.162 950.5,809.5C 952.411,805.767 953.744,801.767 954.5,797.5C 955.906,797.027 956.573,796.027 956.5,794.5C 957.906,794.027 958.573,793.027 958.5,791.5C 958.973,790.094 959.973,789.427 961.5,789.5C 964.43,788.701 967.43,788.368 970.5,788.5C 972.853,789.34 974.853,790.674 976.5,792.5C 978.317,797.241 978.984,802.241 978.5,807.5C 976.796,810.939 975.462,814.605 974.5,818.5C 974.443,819.609 974.11,820.609 973.5,821.5C 970.392,827.82 968.059,834.486 966.5,841.5C 964.755,843.033 963.755,845.033 963.5,847.5C 960.418,854.618 957.751,861.951 955.5,869.5C 953.926,871.102 953.259,873.102 953.5,875.5C 952.094,875.973 951.427,876.973 951.5,878.5C 949.576,882.017 947.909,885.684 946.5,889.5C 944.412,891.336 943.079,893.669 942.5,896.5C 940.937,897.945 939.604,899.611 938.5,901.5C 936.167,903.167 934.167,905.167 932.5,907.5C 930.938,907.733 929.605,908.4 928.5,909.5C 920.85,911.323 913.516,910.656 906.5,907.5C 905.272,906.694 904.272,905.694 903.5,904.5C 903.081,900.227 903.748,896.227 905.5,892.5C 905.953,891.542 906.619,890.708 907.5,890C 911.167,889.667 914.833,889.333 918.5,889C 920.03,886.648 921.697,884.481 923.5,882.5C 925.915,879.66 927.248,876.327 927.5,872.5C 928.781,868.326 927.781,864.659 924.5,861.5C 924.672,860.508 924.338,859.842 923.5,859.5C 923.741,857.102 923.074,855.102 921.5,853.5C 921.88,851.302 921.213,849.635 919.5,848.5C 919.88,846.302 919.213,844.635 917.5,843.5C 915.5,837.833 913.5,832.167 911.5,826.5C 909.537,819.608 907.204,812.941 904.5,806.5C 901.988,792.513 907.655,786.68 921.5,789C 924.043,790.382 926.043,792.215 927.5,794.5 Z"/></g>
<g><path style="opacity:1" fill="#bababa" d="M 399.5,787.5 C 399.833,787.5 400.167,787.5 400.5,787.5C 401.344,790.678 403.011,793.345 405.5,795.5C 401.588,794.256 399.588,791.589 399.5,787.5 Z"/></g>
<g><path style="opacity:1" fill="#8c8c8c" d="M 423.5,790.5 C 425.027,790.427 426.027,791.094 426.5,792.5C 424.973,792.573 423.973,791.906 423.5,790.5 Z"/></g>
<g><path style="opacity:1" fill="#adadad" d="M 858.5,792.5 C 860.587,793.585 861.92,795.251 862.5,797.5C 860.413,796.415 859.08,794.749 858.5,792.5 Z"/></g>
<g><path style="opacity:1" fill="#8f8f8f" d="M 958.5,791.5 C 958.573,793.027 957.906,794.027 956.5,794.5C 956.427,792.973 957.094,791.973 958.5,791.5 Z"/></g>
<g><path style="opacity:1" fill="#464646" d="M 523.5,794.5 C 526.167,795.167 527.833,796.833 528.5,799.5C 526.5,798.167 524.833,796.5 523.5,794.5 Z"/></g>
<g><path style="opacity:1" fill="#a0a0a0" d="M 830.5,792.5 C 828.5,795.167 826.167,797.5 823.5,799.5C 824.833,796.167 827.167,793.833 830.5,792.5 Z"/></g>
<g><path style="opacity:1" fill="#858585" d="M 927.5,794.5 C 928.906,794.973 929.573,795.973 929.5,797.5C 928.094,797.027 927.427,796.027 927.5,794.5 Z"/></g>
<g><path style="opacity:1" fill="#858585" d="M 956.5,794.5 C 956.573,796.027 955.906,797.027 954.5,797.5C 954.427,795.973 955.094,794.973 956.5,794.5 Z"/></g>
<g><path style="opacity:1" fill="#8f8f8f" d="M 471.5,794.5 C 470.167,796.5 468.5,798.167 466.5,799.5C 467.167,796.833 468.833,795.167 471.5,794.5 Z"/></g>
<g><path style="opacity:1" fill="#afafaf" d="M 735.5,796.5 C 734.92,798.749 733.587,800.415 731.5,801.5C 732.08,799.251 733.413,797.585 735.5,796.5 Z"/></g>
<g><path style="opacity:1" fill="#9e9e9e" d="M 865.5,794.5 C 865.5,796.5 865.5,798.5 865.5,800.5C 864.5,800.5 863.5,800.5 862.5,800.5C 862.5,799.5 862.5,798.5 862.5,797.5C 863.9,796.9 864.9,795.9 865.5,794.5 Z"/></g>
<g><path style="opacity:1" fill="#aeaeae" d="M 976.5,792.5 C 977.458,792.953 978.292,793.619 979,794.5C 979.814,799.02 979.647,803.354 978.5,807.5C 978.984,802.241 978.317,797.241 976.5,792.5 Z"/></g>
<g><path style="opacity:1" fill="#878787" d="M 618.5,798.5 C 619.906,798.973 620.573,799.973 620.5,801.5C 619.094,801.027 618.427,800.027 618.5,798.5 Z"/></g>
<g><path style="opacity:1" fill="#808080" d="M 528.5,799.5 C 529.906,799.973 530.573,800.973 530.5,802.5C 529.094,802.027 528.427,801.027 528.5,799.5 Z"/></g>
<g><path style="opacity:1" fill="#797979" d="M 823.5,799.5 C 823.573,801.027 822.906,802.027 821.5,802.5C 821.427,800.973 822.094,799.973 823.5,799.5 Z"/></g>
<g><path style="opacity:1" fill="#757575" d="M 929.5,797.5 C 933.14,805.085 935.806,813.085 937.5,821.5C 934.256,813.767 931.589,805.767 929.5,797.5 Z"/></g>
<g><path style="opacity:1" fill="#7d7d7d" d="M 954.5,797.5 C 953.744,801.767 952.411,805.767 950.5,809.5C 950.861,805.085 952.194,801.085 954.5,797.5 Z"/></g>
<g><path style="opacity:1" fill="#636363" d="M 530.5,802.5 C 531.906,802.973 532.573,803.973 532.5,805.5C 531.094,805.027 530.427,804.027 530.5,802.5 Z"/></g>
<g><path style="opacity:1" fill="#757575" d="M 643.5,802.5 C 643.573,804.027 642.906,805.027 641.5,805.5C 641.427,803.973 642.094,802.973 643.5,802.5 Z"/></g>
<g><path style="opacity:1" fill="#747474" d="M 709.5,802.5 C 710.906,802.973 711.573,803.973 711.5,805.5C 710.094,805.027 709.427,804.027 709.5,802.5 Z"/></g>
<g><path style="opacity:1" fill="#8e8e8e" d="M 463.5,803.5 C 463.585,806.649 462.585,809.316 460.5,811.5C 460.415,808.351 461.415,805.684 463.5,803.5 Z"/></g>
<g><path style="opacity:1" fill="#ababab" d="M 620.5,801.5 C 622.074,803.102 622.741,805.102 622.5,807.5C 620.926,805.898 620.259,803.898 620.5,801.5 Z"/></g>
<g><path style="opacity:1" fill="#c5c5c5" d="M 672.5,807.5 C 675.976,806.357 679.642,806.19 683.5,807C 684.252,807.671 684.586,808.504 684.5,809.5C 680.705,807.857 676.705,807.191 672.5,807.5 Z"/></g>
<g><path style="opacity:1" fill="#bebebe" d="M 887.5,791.5 C 889.61,792.453 890.777,794.119 891,796.5C 891.5,826.498 891.667,856.498 891.5,886.5C 891.167,886.5 890.833,886.5 890.5,886.5C 890.667,856.831 890.5,827.165 890,797.5C 889.345,795.372 888.511,793.372 887.5,791.5 Z"/></g>
<g><path style="opacity:1" fill="#888888" d="M 821.5,802.5 C 821.741,804.898 821.074,806.898 819.5,808.5C 819.259,806.102 819.926,804.102 821.5,802.5 Z"/></g>
<g><path style="opacity:1" fill="#040404" d="M 672.5,807.5 C 676.705,807.191 680.705,807.857 684.5,809.5C 684.833,810.167 685.167,810.833 685.5,811.5C 686.344,815.099 686.677,818.766 686.5,822.5C 680.167,822.5 673.833,822.5 667.5,822.5C 667.5,818.833 667.5,815.167 667.5,811.5C 668.585,809.413 670.251,808.08 672.5,807.5 Z"/></g>
<g><path style="opacity:1" fill="#636363" d="M 904.5,806.5 C 907.204,812.941 909.537,819.608 911.5,826.5C 908.009,820.365 905.675,813.698 904.5,806.5 Z"/></g>
<g><path style="opacity:1" fill="#5f5f5f" d="M 592.5,810.5 C 589.763,810.401 587.096,810.735 584.5,811.5C 585.492,809.974 586.992,809.307 589,809.5C 590.385,809.514 591.551,809.848 592.5,810.5 Z"/></g>
<g><path style="opacity:1" fill="#0a0a0a" d="M 765.5,810.5 C 766.167,810.833 766.833,811.167 767.5,811.5C 769.357,814.417 771.024,817.417 772.5,820.5C 773.628,827.42 773.795,834.42 773,841.5C 772.517,845.467 771.184,849.134 769,852.5C 762.312,856.216 757.812,854.549 755.5,847.5C 755.209,835.783 755.542,824.116 756.5,812.5C 756.833,812.5 757.167,812.5 757.5,812.5C 759.82,810.774 762.487,810.107 765.5,810.5 Z"/></g>
<g><path style="opacity:1" fill="#070707" d="M 860.5,812.5 C 863.019,821.963 864.019,831.63 863.5,841.5C 862.736,845.913 861.069,849.913 858.5,853.5C 855.904,854.265 853.237,854.599 850.5,854.5C 849.855,853.188 848.855,852.188 847.5,851.5C 846.571,850.311 846.238,848.978 846.5,847.5C 846.209,835.783 846.542,824.116 847.5,812.5C 848.512,810.124 850.345,809.124 853,809.5C 855.922,809.548 858.422,810.548 860.5,812.5 Z"/></g>
<g><path style="opacity:1" fill="#757575" d="M 978.5,807.5 C 978.323,811.708 976.99,815.374 974.5,818.5C 975.462,814.605 976.796,810.939 978.5,807.5 Z"/></g>
<g><path style="opacity:1" fill="#888888" d="M 641.5,806.5 C 641.741,808.898 641.074,810.898 639.5,812.5C 639.259,810.102 639.926,808.102 641.5,806.5 Z"/></g>
<g><path style="opacity:1" fill="#525252" d="M 765.5,810.5 C 762.487,810.107 759.82,810.774 757.5,812.5C 757.414,811.504 757.748,810.671 758.5,810C 761.039,809.204 763.372,809.371 765.5,810.5 Z"/></g>
<g><path style="opacity:1" fill="#555555" d="M 767.5,811.5 C 770.978,813.453 772.645,816.453 772.5,820.5C 771.024,817.417 769.357,814.417 767.5,811.5 Z"/></g>
<g><path style="opacity:1" fill="#797979" d="M 950.5,809.5 C 950.277,813.162 949.277,816.495 947.5,819.5C 947.723,815.838 948.723,812.505 950.5,809.5 Z"/></g>
<g><path style="opacity:1" fill="#6e6e6e" d="M 489.5,811.5 C 489.291,812.922 488.791,814.255 488,815.5C 487.5,826.828 487.333,838.162 487.5,849.5C 486.34,837.674 486.174,825.674 487,813.5C 487.417,812.244 488.25,811.577 489.5,811.5 Z"/></g>
<g><path style="opacity:1" fill="#727272" d="M 685.5,811.5 C 686.117,811.611 686.617,811.944 687,812.5C 687.81,816.358 687.643,820.024 686.5,823.5C 686.5,823.167 686.5,822.833 686.5,822.5C 686.677,818.766 686.344,815.099 685.5,811.5 Z"/></g>
<g><path style="opacity:1" fill="#a0a0a0" d="M 731.5,801.5 C 731.263,804.647 730.43,807.647 729,810.5C 728.5,824.829 728.333,839.163 728.5,853.5C 727.339,839.006 727.172,824.339 728,809.5C 728.705,806.524 729.871,803.858 731.5,801.5 Z"/></g>
<g><path style="opacity:1" fill="#292929" d="M 667.5,811.5 C 667.5,815.167 667.5,818.833 667.5,822.5C 673.833,822.5 680.167,822.5 686.5,822.5C 686.5,822.833 686.5,823.167 686.5,823.5C 679.833,823.5 673.167,823.5 666.5,823.5C 666.5,820.167 666.5,816.833 666.5,813.5C 666.328,812.508 666.662,811.842 667.5,811.5 Z"/></g>
<g><path style="opacity:1" fill="#aaaaaa" d="M 756.5,812.5 C 755.542,824.116 755.209,835.783 755.5,847.5C 754.341,836.341 754.174,825.008 755,813.5C 755.383,812.944 755.883,812.611 756.5,812.5 Z"/></g>
<g><path style="opacity:1" fill="#8f8f8f" d="M 847.5,812.5 C 846.542,824.116 846.209,835.783 846.5,847.5C 845.341,836.341 845.174,825.008 846,813.5C 846.383,812.944 846.883,812.611 847.5,812.5 Z"/></g>
<g><path style="opacity:1" fill="#777777" d="M 947.5,819.5 C 946.943,824.165 945.61,828.498 943.5,832.5C 944.057,827.835 945.39,823.502 947.5,819.5 Z"/></g>
<g><path style="opacity:1" fill="#b4b4b4" d="M 666.5,813.5 C 666.5,816.833 666.5,820.167 666.5,823.5C 673.167,823.5 679.833,823.5 686.5,823.5C 679.687,824.491 672.687,824.825 665.5,824.5C 665.185,820.629 665.518,816.962 666.5,813.5 Z"/></g>
<g><path style="opacity:1" fill="#727272" d="M 937.5,821.5 C 939.266,825.285 940.766,829.285 942,833.5C 942.383,832.944 942.883,832.611 943.5,832.5C 943.539,833.756 943.039,834.756 942,835.5C 939.603,831.141 938.103,826.475 937.5,821.5 Z"/></g>
<g><path style="opacity:1" fill="#bdbdbd" d="M 509.5,825.5 C 515.13,826.292 520.797,826.625 526.5,826.5C 521.684,827.65 516.684,827.816 511.5,827C 510.584,826.722 509.918,826.222 509.5,825.5 Z"/></g>
<g><path style="opacity:1" fill="#404040" d="M 973.5,821.5 C 973.41,823.696 973.077,825.863 972.5,828C 970.806,832.74 968.806,837.24 966.5,841.5C 968.059,834.486 970.392,827.82 973.5,821.5 Z"/></g>
<g><path style="opacity:1" fill="#5e5e5e" d="M 860.5,812.5 C 862.446,814.734 863.613,817.401 864,820.5C 864.821,827.679 864.655,834.679 863.5,841.5C 864.019,831.63 863.019,821.963 860.5,812.5 Z"/></g>
<g><path style="opacity:1" fill="#b2b2b2" d="M 705.5,836.5 C 692.677,837.495 679.677,837.829 666.5,837.5C 666.5,841.5 666.5,845.5 666.5,849.5C 665.515,845.366 665.182,841.032 665.5,836.5C 678.833,836.5 692.167,836.5 705.5,836.5 Z"/></g>
<g><path style="opacity:1" fill="#949494" d="M 581.5,815.5 C 580.253,819.715 579.42,824.048 579,828.5C 578.831,840.674 578.331,852.674 577.5,864.5C 577.333,851.496 577.5,838.496 578,825.5C 578.302,821.755 579.469,818.422 581.5,815.5 Z"/></g>
<g><path style="opacity:1" fill="#d1d1d1" d="M 528.5,840.5 C 522.108,840.249 515.775,840.582 509.5,841.5C 509.611,840.883 509.944,840.383 510.5,840C 514.137,839.283 517.804,838.783 521.5,838.5C 524.205,838.316 526.538,838.983 528.5,840.5 Z"/></g>
<g><path style="opacity:1" fill="#939393" d="M 443.5,825.5 C 445.129,827.858 446.295,830.524 447,833.5C 447.817,839.016 447.651,844.35 446.5,849.5C 446.666,844.489 446.499,839.489 446,834.5C 444.57,831.647 443.737,828.647 443.5,825.5 Z"/></g>
<g><path style="opacity:1" fill="#7b7b7b" d="M 966.5,841.5 C 966.245,843.967 965.245,845.967 963.5,847.5C 963.755,845.033 964.755,843.033 966.5,841.5 Z"/></g>
<g><path style="opacity:1" fill="#7e7e7e" d="M 917.5,843.5 C 919.213,844.635 919.88,846.302 919.5,848.5C 918.463,847.07 917.796,845.403 917.5,843.5 Z"/></g>
<g><path style="opacity:1" fill="#464646" d="M 397.5,841.5 C 398.657,844.273 399.324,847.273 399.5,850.5C 397.735,847.877 397.068,844.877 397.5,841.5 Z"/></g>
<g><path style="opacity:1" fill="#848484" d="M 919.5,848.5 C 921.213,849.635 921.88,851.302 921.5,853.5C 920.463,852.07 919.796,850.403 919.5,848.5 Z"/></g>
<g><path style="opacity:1" fill="#7b7b7b" d="M 709.5,849.5 C 710.458,849.953 711.292,850.619 712,851.5C 712.808,855.027 712.641,858.36 711.5,861.5C 711.919,857.227 711.252,853.227 709.5,849.5 Z"/></g>
<g><path style="opacity:1" fill="#b0b0b0" d="M 858.5,853.5 C 857.508,855.026 856.008,855.693 854,855.5C 852.615,855.486 851.449,855.152 850.5,854.5C 853.237,854.599 855.904,854.265 858.5,853.5 Z"/></g>
<g><path style="opacity:1" fill="#414141" d="M 921.5,853.5 C 923.074,855.102 923.741,857.102 923.5,859.5C 921.926,857.898 921.259,855.898 921.5,853.5 Z"/></g>
<g><path style="opacity:1" fill="#646464" d="M 373.5,858.5 C 374.906,858.973 375.573,859.973 375.5,861.5C 374.094,861.027 373.427,860.027 373.5,858.5 Z"/></g>
<g><path style="opacity:1" fill="#7b7b7b" d="M 924.5,861.5 C 927.781,864.659 928.781,868.326 927.5,872.5C 926.8,868.763 925.8,865.096 924.5,861.5 Z"/></g>
<g><path style="opacity:1" fill="#515151" d="M 531.5,861.5 C 530.92,863.749 529.587,865.415 527.5,866.5C 528.08,864.251 529.413,862.585 531.5,861.5 Z"/></g>
<g><path style="opacity:1" fill="#6e6e6e" d="M 774.5,868.5 C 773.778,868.082 773.278,867.416 773,866.5C 772.617,867.056 772.117,867.389 771.5,867.5C 773.314,863.357 774.314,863.69 774.5,868.5 Z"/></g>
<g><path style="opacity:1" fill="#545454" d="M 863.5,884.5 C 863.822,878.642 863.489,872.975 862.5,867.5C 862.461,866.244 862.961,865.244 864,864.5C 864.821,871.346 864.654,878.013 863.5,884.5 Z"/></g>
<g><path style="opacity:1" fill="#b5b5b5" d="M 475.5,871.5 C 479.533,872.025 483.2,873.358 486.5,875.5C 482.467,874.975 478.8,873.642 475.5,871.5 Z"/></g>
<g><path style="opacity:1" fill="#b5b5b5" d="M 654.5,871.5 C 658.533,872.025 662.2,873.358 665.5,875.5C 661.467,874.975 657.8,873.642 654.5,871.5 Z"/></g>
<g><path style="opacity:1" fill="#6c6c6c" d="M 700.5,871.5 C 699.486,872.674 698.153,873.34 696.5,873.5C 697.287,871.896 698.62,871.229 700.5,871.5 Z"/></g>
<g><path style="opacity:1" fill="#4f4f4f" d="M 955.5,869.5 C 955.741,871.898 955.074,873.898 953.5,875.5C 953.259,873.102 953.926,871.102 955.5,869.5 Z"/></g>
<g><path style="opacity:1" fill="#a9a9a9" d="M 742.5,873.5 C 744.898,873.259 746.898,873.926 748.5,875.5C 746.102,875.741 744.102,875.074 742.5,873.5 Z"/></g>
<g><path style="opacity:1" fill="#b6b6b6" d="M 387.5,872.5 C 390.647,872.737 393.647,873.57 396.5,875C 405.852,875.651 415.186,875.484 424.5,874.5C 414.756,877.618 404.756,878.118 394.5,876C 391.931,875.102 389.598,873.935 387.5,872.5 Z"/></g>
<g><path style="opacity:1" fill="#a6a6a6" d="M 763.5,874.5 C 760.618,875.913 757.451,876.579 754,876.5C 751.967,876.494 750.134,876.161 748.5,875.5C 753.507,875.249 758.507,874.916 763.5,874.5 Z"/></g>
<g><path style="opacity:1" fill="#757575" d="M 953.5,875.5 C 953.573,877.027 952.906,878.027 951.5,878.5C 951.427,876.973 952.094,875.973 953.5,875.5 Z"/></g>
<g><path style="opacity:1" fill="#a4a4a4" d="M 927.5,872.5 C 927.248,876.327 925.915,879.66 923.5,882.5C 923.752,878.673 925.085,875.34 927.5,872.5 Z"/></g>
<g><path style="opacity:1" fill="#484848" d="M 839.5,882.5 C 834.438,882.274 829.438,882.608 824.5,883.5C 824.611,882.883 824.944,882.383 825.5,882C 830.352,881.185 835.019,881.352 839.5,882.5 Z"/></g>
<g><path style="opacity:1" fill="#b9b9b9" d="M 843.5,884.5 C 846.389,886.495 848.389,889.162 849.5,892.5C 847.983,892.489 846.816,891.823 846,890.5C 845.345,888.372 844.511,886.372 843.5,884.5 Z"/></g>
<g><path style="opacity:1" fill="#575757" d="M 890.5,886.5 C 890.833,886.5 891.167,886.5 891.5,886.5C 891.741,888.898 891.074,890.898 889.5,892.5C 889.517,890.435 889.85,888.435 890.5,886.5 Z"/></g>
<g><path style="opacity:1" fill="#6c6c6c" d="M 860.5,891.5 C 860.389,892.117 860.056,892.617 859.5,893C 855.973,893.808 852.64,893.641 849.5,892.5C 853.234,892.677 856.901,892.344 860.5,891.5 Z"/></g>
<g><path style="opacity:1" fill="#404040" d="M 946.5,889.5 C 946.264,892.621 944.931,894.954 942.5,896.5C 943.079,893.669 944.412,891.336 946.5,889.5 Z"/></g>
<g><path style="opacity:1" fill="#3c3c3c" d="M 820.5,886.5 C 819.99,890.813 820.657,894.813 822.5,898.5C 822.5,898.833 822.5,899.167 822.5,899.5C 821.542,899.047 820.708,898.381 820,897.5C 819.19,893.642 819.357,889.976 820.5,886.5 Z"/></g>
<g><path style="opacity:1" fill="#8b8b8b" d="M 905.5,892.5 C 903.748,896.227 903.081,900.227 903.5,904.5C 902.359,901.36 902.192,898.027 903,894.5C 903.708,893.619 904.542,892.953 905.5,892.5 Z"/></g>
<g><path style="opacity:1" fill="#b0b0b0" d="M 822.5,899.5 C 822.5,899.167 822.5,898.833 822.5,898.5C 825.118,900.452 827.452,902.785 829.5,905.5C 826.547,904.213 824.214,902.213 822.5,899.5 Z"/></g>
<g><path style="opacity:1" fill="#444444" d="M 887.5,897.5 C 885.833,901.167 883.167,903.833 879.5,905.5C 881.833,902.5 884.5,899.833 887.5,897.5 Z"/></g>
<g><path style="opacity:1" fill="#434343" d="M 938.5,901.5 C 937.5,904.5 935.5,906.5 932.5,907.5C 934.167,905.167 936.167,903.167 938.5,901.5 Z"/></g>
<g><path style="opacity:1" fill="#989898" d="M 906.5,907.5 C 913.516,910.656 920.85,911.323 928.5,909.5C 928.082,910.222 927.416,910.722 926.5,911C 921.5,911.667 916.5,911.667 911.5,911C 909.119,910.777 907.453,909.61 906.5,907.5 Z"/></g>
</svg>
